HIERARCHY
ROOT SpineBase
{
  OFFSET 0.000000 0.000000 0.000000
  CHANNELS 6 Xposition Yposition Zposition Zrotation Xrotation Yrotation
  JOINT SpineMid
  {
    OFFSET 0.000000 29.187012 0.000000
    CHANNELS 3 Zrotation Xrotation Yrotation
    JOINT SpineShoulder
    {
      OFFSET -0.154215 21.777459 -0.623225
      CHANNELS 3 Zrotation Xrotation Yrotation
      JOINT Neck
      {
        OFFSET -0.103377 7.226574 -0.488838
        CHANNELS 3 Zrotation Xrotation Yrotation
        JOINT Head
        {
          OFFSET 7.176556 11.504779 -0.945973
          CHANNELS 3 Zrotation Xrotation Yrotation
          End Site
          {
            OFFSET 0 0 0
          }
        }
      }
      JOINT ShoulderLeft
      {
        OFFSET -14.581873 -2.024785 -7.417398
        CHANNELS 3 Zrotation Xrotation Yrotation
        JOINT ElbowLeft
        {
          OFFSET -7.803866 -23.153692 -3.261441
          CHANNELS 3 Zrotation Xrotation Yrotation
          JOINT WristLeft
          {
            OFFSET 0.936837 -20.542397 -5.432577
            CHANNELS 3 Zrotation Xrotation Yrotation
            JOINT HandLeft
            {
              OFFSET 1.522324 -6.662372 -0.268432
              CHANNELS 3 Zrotation Xrotation Yrotation
              JOINT HandTipLeft
              {
                OFFSET 0.502334 -6.073807 0.272700
                CHANNELS 3 Zrotation Xrotation Yrotation
                End Site
                {
                  OFFSET 0 0 0
                }
              }
              JOINT ThumbLeft
              {
                OFFSET 2.946056 0.686359 0.322982
                CHANNELS 3 Zrotation Xrotation Yrotation
                End Site
                {
                  OFFSET 0 0 0
                }
              }
            }
          }
        }
      }
      JOINT ShoulderRight
      {
        OFFSET 15.712949 -6.716760 6.802486
        CHANNELS 3 Zrotation Xrotation Yrotation
        JOINT ElbowRight
        {
          OFFSET 0.087995 -24.778255 2.983440
          CHANNELS 3 Zrotation Xrotation Yrotation
          JOINT WristRight
          {
            OFFSET -1.357724 -20.309515 -8.380611
            CHANNELS 3 Zrotation Xrotation Yrotation
            JOINT HandRight
            {
              OFFSET -1.579021 -4.281214 -1.206572
              CHANNELS 3 Zrotation Xrotation Yrotation
              JOINT HandTipRight
              {
                OFFSET -0.594752 -5.187057 -1.340701
                CHANNELS 3 Zrotation Xrotation Yrotation
                End Site
                {
                  OFFSET 0 0 0
                }
              }
              JOINT ThumbRight
              {
                OFFSET 3.227497 1.954613 -0.874609
                CHANNELS 3 Zrotation Xrotation Yrotation
                End Site
                {
                  OFFSET 0 0 0
                }
              }
            }
          }
        }
      }
    }
  }
  JOINT HipLeft
  {
    OFFSET -6.119549 1.581052 -5.538613
    CHANNELS 3 Zrotation Xrotation Yrotation
    JOINT KneeLeft
    {
      OFFSET -8.117935 -28.274275 1.003220
      CHANNELS 3 Zrotation Xrotation Yrotation
      JOINT AnkleLeft
      {
        OFFSET -4.530237 -37.970240 11.509227
        CHANNELS 3 Zrotation Xrotation Yrotation
        JOINT FootLeft
        {
          OFFSET 2.268494 -6.725531 -4.569882
          CHANNELS 3 Zrotation Xrotation Yrotation
          End Site
          {
            OFFSET 0 0 0
          }
        }
      }
    }
  }
  JOINT HipRight
  {
    OFFSET 4.710277 0.662801 -0.701400
    CHANNELS 3 Zrotation Xrotation Yrotation
    JOINT KneeRight
    {
      OFFSET -3.912755 -28.506177 1.454369
      CHANNELS 3 Zrotation Xrotation Yrotation
      JOINT AnkleRight
      {
        OFFSET -10.847769 -37.835308 6.934285
        CHANNELS 3 Zrotation Xrotation Yrotation
        JOINT FootRight
        {
          OFFSET 3.841279 -2.688841 -12.704225
          CHANNELS 3 Zrotation Xrotation Yrotation
          End Site
          {
            OFFSET 0 0 0
          }
        }
      }
    }
  }
}
MOTION
Frames: 16
Frame Time: 0.033333
67.661347 68.253596 301.558048 -1.114903 1.042372 -1.299225 0.143938 -0.344223 1.284563 0.235312 -0.260457 -0.021268 14.721445 -5.952880 5.853074 0.000000 0.000000 0.000000 2.952176 -3.242673 0.761670 -7.461512 7.459880 1.483407 -1.625819 14.456158 3.921371 11.621427 -2.344919 -0.927022 0.000000 0.000000 0.000000 0.000000 0.000000 0.000000 -3.457877 -1.661171 -0.539811 9.731200 -11.365792 -0.491834 -1.145923 31.504427 -7.782961 -0.038509 -34.644518 10.624794 0.000000 0.000000 0.000000 0.000000 0.000000 0.000000 8.311092 30.027258 -9.646397 -6.594158 -0.941784 3.138666 -6.307975 -2.316943 14.657792 0.000000 0.000000 0.000000 11.647893 -7.426002 3.560485 -10.683792 0.383518 0.967316 -2.339086 5.390859 11.610231 0.000000 0.000000 0.000000
66.944139 67.939593 298.716844 -1.214023 1.027650 -0.700463 0.169864 -0.316422 0.684958 0.269190 -0.283481 -0.021905 15.617242 -6.300589 6.303755 0.000000 0.000000 0.000000 3.980945 -3.397921 0.717624 -8.172630 7.561485 1.502145 -0.822048 14.299497 3.783473 9.967929 1.141395 -1.059216 0.000000 0.000000 0.000000 0.000000 0.000000 0.000000 -3.429116 -1.521277 -0.532289 9.649035 -11.552745 -0.434934 -0.044607 32.800928 -8.964784 0.108212 -37.769177 11.793676 0.000000 0.000000 0.000000 0.000000 0.000000 0.000000 10.755521 29.875390 -10.810407 -8.309223 -0.653550 2.565623 -6.948849 -1.125900 15.323291 0.000000 0.000000 0.000000 12.959084 -8.817094 3.449088 -11.608059 1.925918 0.922696 -2.767162 5.320936 12.489712 0.000000 0.000000 0.000000
66.288746 67.744436 295.870558 -1.229449 0.890554 -0.526305 0.202761 -0.364618 0.508352 1.030276 -0.523619 0.030479 15.723930 -6.465710 6.777388 0.000000 0.000000 0.000000 4.421859 -3.537979 0.718772 -9.000082 8.415711 1.464388 -0.272382 13.596453 3.603049 9.616713 2.024980 -1.003499 0.000000 0.000000 0.000000 0.000000 0.000000 0.000000 -4.163405 -1.195676 -0.548604 9.562626 -11.406875 -0.446301 -0.470303 35.137920 -9.603808 3.759301 -42.114719 14.175220 0.000000 0.000000 0.000000 0.000000 0.000000 0.000000 12.850503 30.012065 -11.566494 -9.886400 -1.865066 2.201404 -7.760422 -1.865101 15.098320 0.000000 0.000000 0.000000 14.429752 -9.265232 3.597245 -12.959779 2.536480 0.956866 -2.961265 5.377550 13.101877 0.000000 0.000000 0.000000
65.620690 67.680896 292.916818 -1.118835 0.684532 -0.133565 0.217432 -0.336641 0.115528 0.902329 -0.347012 0.026095 16.475031 -7.070030 7.428260 0.000000 0.000000 0.000000 5.210023 -3.847187 0.752976 -9.057833 8.586561 1.250478 -0.309283 13.314547 3.571894 9.222407 3.451853 -0.957970 0.000000 0.000000 0.000000 0.000000 0.000000 0.000000 -4.171912 -1.153606 -0.548062 9.578429 -11.475003 -0.438598 -2.472620 38.882060 -9.667014 10.003202 -46.214995 17.694815 0.000000 0.000000 0.000000 0.000000 0.000000 0.000000 14.919090 30.161426 -12.602830 -11.355573 -4.143472 2.002506 -7.805026 1.712733 15.518441 0.000000 0.000000 0.000000 16.135234 -9.835967 3.615727 -14.977922 3.318012 0.992723 -2.841367 5.379733 13.520040 0.000000 0.000000 0.000000
64.929248 67.848236 290.009316 -0.983118 0.201319 -0.066329 0.983356 -0.200151 0.069774 -0.000000 0.000000 0.000000 17.255632 -6.914030 7.457340 0.000000 0.000000 0.000000 5.648238 -4.306493 0.887900 -8.508003 8.718791 0.831111 -1.013229 13.267643 3.676032 10.242440 3.104068 -0.741066 0.000000 0.000000 0.000000 0.000000 0.000000 0.000000 -4.167145 -1.165241 -0.547897 9.569868 -11.452354 -0.440876 -5.772103 43.593424 -9.068380 19.395041 -49.424542 23.003302 0.000000 0.000000 0.000000 0.000000 0.000000 0.000000 16.608395 30.285579 -13.154143 -12.643613 -6.427113 1.881640 -5.779920 2.528908 13.996445 0.000000 0.000000 0.000000 17.427332 -9.247519 3.583097 -16.426544 3.242814 1.044297 -2.847000 5.277212 13.420891 0.000000 0.000000 0.000000
64.246576 68.149010 287.083846 -0.876508 -0.262858 -0.013535 0.161790 -0.362447 -0.015988 0.266637 -0.324078 -0.021725 18.324481 -5.865283 7.222712 0.000000 0.000000 0.000000 6.304143 -3.301110 0.786454 -7.772438 7.882532 0.479159 -2.245508 13.482680 3.851025 11.359871 2.266597 -0.540713 0.000000 0.000000 0.000000 0.000000 0.000000 0.000000 -3.719781 -0.209510 -0.438578 9.574387 -11.468700 -0.439345 -10.613707 46.300074 -6.529834 29.775666 -50.550807 27.956372 0.000000 0.000000 0.000000 0.000000 0.000000 0.000000 18.052504 30.051397 -13.460634 -13.790565 -8.427677 1.783286 -5.739836 2.713077 13.076213 0.000000 0.000000 0.000000 18.347776 -9.487601 3.732223 -17.413751 3.987485 1.094815 -2.929259 5.192361 13.681939 0.000000 0.000000 0.000000
63.639429 68.559779 284.274781 -0.852693 -0.868666 -0.297950 0.100845 -0.359362 0.258114 0.213857 -0.305292 -0.031887 19.322514 -4.705649 6.692400 0.000000 0.000000 0.000000 6.419107 -2.757936 0.749998 -7.119561 7.259819 0.186938 -3.111820 14.167800 4.113369 11.457936 1.076701 -0.550538 0.000000 0.000000 0.000000 0.000000 0.000000 0.000000 -3.630656 0.373372 -0.385265 9.574721 -11.468032 -0.438660 -15.633307 48.474531 -3.599547 43.417508 -50.763370 34.935960 0.000000 0.000000 0.000000 0.000000 0.000000 0.000000 18.900512 29.436237 -12.997371 -14.628875 -9.278355 1.664991 -5.462654 3.670620 12.321568 0.000000 0.000000 0.000000 19.214432 -8.830205 3.930081 -18.255509 4.039431 1.134893 -2.919480 5.036678 13.309960 0.000000 0.000000 0.000000
63.035314 69.033539 281.615899 -0.921640 -1.420248 -0.196493 0.014347 -0.325342 0.143989 0.140971 -0.256578 -0.045992 20.527858 -3.989548 6.475931 0.000000 0.000000 0.000000 6.450233 -2.068643 0.657110 -6.411174 6.370487 -0.008511 -4.439560 14.920182 4.469360 11.746901 0.317571 -0.570210 0.000000 0.000000 0.000000 0.000000 0.000000 0.000000 -3.404391 0.842870 -0.335220 9.575149 -11.470411 -0.438431 -20.362421 48.003574 -0.128761 48.230773 -49.489715 35.214777 0.000000 0.000000 0.000000 0.000000 0.000000 0.000000 19.725830 28.064575 -12.552580 -15.330527 -8.915294 1.458200 -5.969443 6.458599 12.615535 0.000000 0.000000 0.000000 20.180973 -8.992679 3.966223 -19.126135 4.764386 1.197942 -2.832113 4.661774 12.303781 0.000000 0.000000 0.000000
62.728197 69.549142 279.412316 -0.754969 -2.264596 -0.073980 0.015670 -0.402314 0.016136 0.119481 -0.255786 -0.047761 20.812260 -2.249976 5.445851 0.000000 0.000000 0.000000 5.969007 -0.795010 0.478455 -5.716550 5.573818 -0.115899 -5.314934 14.994329 4.602948 11.755179 -1.708973 -0.639761 0.000000 0.000000 0.000000 0.000000 0.000000 0.000000 -3.553368 1.763603 -0.267274 9.575064 -11.472627 -0.438602 -22.786921 45.692373 2.098940 49.818864 -48.255383 33.371314 0.000000 0.000000 0.000000 0.000000 0.000000 0.000000 19.624807 26.935955 -12.012336 -15.206025 -7.821071 1.464051 -8.578974 14.741910 15.720946 0.000000 0.000000 0.000000 20.263175 -8.551826 3.695767 -19.378373 5.100705 1.226601 -3.134002 4.443993 13.524470 0.000000 0.000000 0.000000
62.364134 70.074453 277.218942 -0.832596 -2.893233 0.315425 0.008595 -0.317288 -0.385215 0.149443 -0.249745 -0.054233 21.620068 -1.536245 5.164276 0.000000 0.000000 0.000000 5.619655 -0.037070 0.417264 -4.971223 5.115619 -0.249466 -5.652306 15.757011 4.872807 12.625598 -3.606870 -0.490498 0.000000 0.000000 0.000000 0.000000 0.000000 0.000000 -3.503391 2.301875 -0.221306 9.575358 -11.474533 -0.438557 -22.129951 41.493726 2.640149 45.237815 -45.818612 27.549781 0.000000 0.000000 0.000000 0.000000 0.000000 0.000000 19.856638 25.104894 -11.481357 -15.234891 -6.083675 1.295654 -10.192658 16.852976 16.742766 0.000000 0.000000 0.000000 20.911976 -8.568784 3.323839 -20.041802 5.621042 1.277725 -3.532719 4.537395 16.072039 0.000000 0.000000 0.000000
62.105042 70.542086 275.305467 -0.857632 -3.588294 0.754455 0.037907 -0.380370 -0.836733 0.154616 -0.230579 -0.059751 22.047574 -0.179113 4.338637 0.000000 0.000000 0.000000 5.173733 0.688359 0.443762 -4.183711 5.210103 -0.442267 -5.205841 16.685812 5.089824 12.629599 -4.114542 -0.423871 0.000000 0.000000 0.000000 0.000000 0.000000 0.000000 -3.520278 3.039993 -0.161584 9.575710 -11.475974 -0.438628 -20.525797 35.974025 2.953333 37.552122 -42.566053 20.100797 0.000000 0.000000 0.000000 0.000000 0.000000 0.000000 19.834427 23.461591 -11.042226 -15.045291 -4.444518 1.168452 -10.222882 12.271184 14.879023 0.000000 0.000000 0.000000 21.088915 -8.970849 2.971188 -20.244473 6.565819 1.329050 -4.161033 4.816820 19.855778 0.000000 0.000000 0.000000
61.837804 71.062162 273.270124 -0.910161 -3.917544 0.732180 0.032705 -0.317945 -0.821909 0.158910 -0.216467 -0.063984 22.425347 -0.026599 4.352772 0.000000 0.000000 0.000000 4.887314 0.739385 0.568767 -3.413437 5.413432 -0.707528 -3.813406 17.103492 4.971626 12.034326 -5.411065 -0.360014 0.000000 0.000000 0.000000 0.000000 0.000000 0.000000 -3.468112 3.293204 -0.139387 9.576294 -11.476914 -0.438602 -19.943618 31.597227 3.695051 32.002224 -39.781834 14.849857 0.000000 0.000000 0.000000 0.000000 0.000000 0.000000 19.612791 21.208154 -9.808957 -14.899404 -2.213212 0.925381 -11.091134 12.656179 15.011818 0.000000 0.000000 0.000000 21.262901 -10.144382 3.366824 -20.305289 8.129445 1.400358 -4.797705 5.259736 23.710840 0.000000 0.000000 0.000000
61.591553 71.544618 271.497587 -1.023541 -4.192982 1.161942 0.086886 -0.336459 -1.264158 0.191856 -0.211719 -0.067681 22.366845 0.312821 4.177924 0.000000 0.000000 0.000000 4.642269 0.692343 0.728746 -2.579131 5.940270 -1.046177 -2.499677 17.950500 4.999706 12.638143 -8.051652 0.086047 0.000000 0.000000 0.000000 0.000000 0.000000 0.000000 -3.448649 3.580780 -0.115492 9.577407 -11.477467 -0.438229 -21.227983 29.200118 5.028487 29.977561 -38.433565 12.101367 0.000000 0.000000 0.000000 0.000000 0.000000 0.000000 19.689444 19.159967 -9.250298 -14.753465 -0.429852 0.722494 -13.019141 18.410440 17.541756 0.000000 0.000000 0.000000 21.208871 -11.437376 3.293914 -20.159527 9.584302 1.450195 -5.393606 5.682251 27.198265 0.000000 0.000000 0.000000
61.496050 72.037712 269.713356 -0.918988 -4.193401 1.674948 0.077549 -0.312214 -1.769666 0.194684 -0.201650 -0.063216 21.466439 0.131772 4.264230 0.000000 0.000000 0.000000 4.058612 0.743147 0.787244 -1.296163 5.745035 -1.382467 -1.271559 18.592542 4.936703 10.825696 -9.682352 -0.101546 0.000000 0.000000 0.000000 0.000000 0.000000 0.000000 -3.551551 3.546181 -0.121115 9.579370 -11.477475 -0.437371 -22.083600 28.293250 5.727418 28.518782 -37.244838 10.607272 0.000000 0.000000 0.000000 0.000000 0.000000 0.000000 19.226483 17.097071 -8.739503 -14.249547 0.862518 0.643525 -12.728116 15.525631 15.938663 0.000000 0.000000 0.000000 20.460140 -12.734112 3.100757 -19.565132 10.745505 1.439204 -5.917748 6.169204 30.195597 0.000000 0.000000 0.000000
61.492730 72.503130 268.094899 -0.752099 -4.123231 1.912244 0.037720 -0.368900 -1.995231 0.180617 -0.235457 -0.058881 20.324363 0.147044 4.182230 0.000000 0.000000 0.000000 3.722035 0.678843 0.856497 -0.132177 6.057835 -1.770560 -0.437159 18.404095 4.824145 10.364644 -9.545141 0.048669 0.000000 0.000000 0.000000 0.000000 0.000000 0.000000 -3.671493 3.567066 -0.122655 9.581698 -11.477675 -0.436142 -21.819898 28.116384 5.623398 27.303094 -36.425104 10.049576 0.000000 0.000000 0.000000 0.000000 0.000000 0.000000 18.290518 15.345938 -8.028612 -13.327315 1.838079 0.672713 -11.653903 13.420479 13.999040 0.000000 0.000000 0.000000 19.682279 -14.268041 3.268957 -18.936359 12.195825 1.421285 -6.306178 6.599844 32.346814 0.000000 0.000000 0.000000
61.601843 72.927278 266.625902 -0.547066 -3.886157 2.038528 -0.002943 -0.372987 -2.104696 0.166823 -0.240734 -0.050646 18.872903 -0.370365 4.416208 0.000000 0.000000 0.000000 3.236920 0.782833 0.802446 1.180345 5.431664 -2.051048 0.682548 18.314723 4.591112 9.789306 -9.468921 0.242230 0.000000 0.000000 0.000000 0.000000 0.000000 0.000000 -3.824572 3.340840 -0.145942 9.583904 -11.477406 -0.435082 -20.873439 27.954416 5.136234 26.251619 -35.963321 9.853746 0.000000 0.000000 0.000000 0.000000 0.000000 0.000000 17.212095 13.926228 -7.385994 -12.389675 2.199335 0.752408 -11.245854 13.558989 13.270307 0.000000 0.000000 0.000000 18.175549 -14.983336 3.182654 -17.637520 12.652123 1.283368 -6.533581 8.170389 33.701539 0.000000 0.000000 0.000000
